<svg xmlns="http://www.w3.org/2000/svg" xmlns:xlink="http://www.w3.org/1999/xlink" viewBox="0,0,256,256" width="160px" height="160px"><g fill="none" fill-rule="nonzero" stroke="none" stroke-width="none" stroke-linecap="butt" stroke-linejoin="miter" stroke-miterlimit="10" stroke-dasharray="" stroke-dashoffset="0" font-family="none" font-weight="none" font-size="none" text-anchor="none" style="mix-blend-mode: normal"><g transform="scale(3.2,3.2)"><path d="M8,75.5c-1.93,0 -3.5,-1.57 -3.5,-3.5v-64c0,-1.93 1.57,-3.5 3.5,-3.5h64c1.93,0 3.5,1.57 3.5,3.5v64c0,1.93 -1.57,3.5 -3.5,3.5z" fill-opacity="0" fill="#ffffff" stroke="none" stroke-width="1"></path><path d="M72,5c1.654,0 3,1.346 3,3v64c0,1.654 -1.346,3 -3,3h-64c-1.654,0 -3,-1.346 -3,-3v-64c0,-1.654 1.346,-3 3,-3h64M72,4h-64c-2.209,0 -4,1.791 -4,4v64c0,2.209 1.791,4 4,4h64c2.209,0 4,-1.791 4,-4v-64c0,-2.209 -1.791,-4 -4,-4z" fill="#4e7ab5" stroke="none" stroke-width="1"></path><path d="M22,40.107l11.929,11.929l26.84,-26.841" fill="none" stroke="#8bb7f0" stroke-width="6"></path></g></g></svg>